<?xml version="1.0" encoding="UTF-8"?>
<svg id="Layer_2" data-name="Layer 2" xmlns="http://www.w3.org/2000/svg" viewBox="0 0 1359.99 1360.14">
  <g id="Logo">
    <path id="big" d="M533.35,35.16L35.15,533.36C12.64,555.87,0,586.39,0,618.21c0,40.21,0,82.42,0,122.63,0,31.83,12.64,62.34,35.15,84.85l499.3,499.3c22.5,22.5,53.02,35.15,84.85,35.15,39.13,0,80.97,0,120.03,0,31.83,0,62.34-12.64,84.85-35.15l500.67-500.67c22.5-22.5,35.15-53.02,35.15-84.85,0-39.01,0-80.84,0-119.93,0-31.83-12.64-62.34-35.15-84.85L825.28,35.15C802.77,12.63,772.24,0,740.4,0c-35.04.01-82.57.02-122.17.01-31.83,0-62.37,12.64-84.88,35.15ZM60.86,585.43L566.64,79.64c7.81-7.81,20.47-7.81,28.28,0l487.2,487.2c7.81,7.81,7.81,20.47,0,28.28l-31.37,31.37c-7.81,7.81-20.47,7.81-28.28,0l-427.55-427.55c-7.81-7.81-20.47-7.81-28.28,0L89.14,676.43c-12.6,12.6-34.14,3.68-34.14-14.14v-62.72c0-5.3,2.11-10.39,5.86-14.14ZM198.74,792.2l478.81,478.81c12.6,12.6,3.68,34.14-14.14,34.14h-62.73c-5.3,0-10.39-2.11-14.14-5.86L79.44,792.2c-7.81-7.81-7.81-20.47,0-28.28l487.2-487.2c7.81-7.81,20.47-7.81,28.28,0l31.36,31.36c7.81,7.81,7.81,20.47,0,28.28l-427.55,427.55c-7.81,7.81-7.81,20.47,0,28.28ZM693.46,375.26l290.13,290.13c7.81,7.81,7.81,20.47,0,28.28l-290.12,290.12c-7.81,7.81-20.47,7.81-28.28,0l-290.13-290.13c-7.81-7.81-7.81-20.47,0-28.28l290.12-290.12c7.81-7.81,20.47-7.81,28.28,0ZM1299.13,772.26l-507.13,507.13c-7.81,7.81-20.47,7.81-28.28,0l-487.2-487.2c-7.81-7.81-7.81-20.47,0-28.28l31.36-31.36c7.81-7.81,20.47-7.81,28.28,0l427.55,427.55c7.81,7.81,20.47,7.81,28.28,0l478.85-478.85c12.6-12.6,34.14-3.68,34.14,14.14v62.72c0,5.3-2.11,10.39-5.86,14.14ZM1279.2,595.13l-487.2,487.2c-7.81,7.81-20.47,7.81-28.28,0l-31.36-31.36c-7.81-7.81-7.81-20.47,0-28.28l427.55-427.55c7.81-7.81,7.81-20.47,0-28.28L682.19,89.12c-12.6-12.6-3.68-34.14,14.14-34.14h62.72c5.3,0,10.39,2.11,14.14,5.86l506,506c7.81,7.81,7.81,20.47,0,28.28Z"/>
  </g>
</svg>